<?xml version="1.0" standalone="no"?>
<!DOCTYPE svg PUBLIC "-//W3C//DTD SVG 20010904//EN"
 "http://www.w3.org/TR/2001/REC-SVG-20010904/DTD/svg10.dtd">
<svg version="1.0" xmlns="http://www.w3.org/2000/svg"
 width="708.000000pt" height="708.000000pt" viewBox="0 0 708.000000 708.000000"
 preserveAspectRatio="xMidYMid meet">
<g transform="translate(0.000000,708.000000) scale(0.100000,-0.100000)"
fill="#ffffff" stroke="none">
<path d="M1317 6854 c-1 -1 -24 -5 -52 -8 -95 -13 -122 -19 -215 -46 -220 -66
-427 -222 -471 -355 -7 -22 -14 -42 -14 -45 -1 -3 -10 -32 -20 -65 -10 -33
-20 -64 -21 -70 -1 -5 -14 -51 -28 -101 -15 -50 -29 -100 -31 -110 -2 -10 -14
-53 -25 -94 -12 -41 -23 -84 -25 -95 -3 -11 -12 -49 -21 -84 -18 -73 -22 -92
-30 -141 -3 -19 -8 -38 -10 -41 -2 -3 -6 -21 -9 -40 -3 -19 -8 -42 -11 -51 -3
-9 -6 -25 -8 -35 -2 -10 -9 -38 -16 -63 -7 -25 -14 -54 -17 -65 -6 -28 -9 -37
-18 -60 -5 -11 -17 -42 -27 -69 -27 -71 -69 -126 -147 -197 -172 -154 -136
-189 192 -184 106 1 208 5 227 8 80 12 111 18 158 32 23 7 24 5 18 -37 -3 -23
-8 -54 -11 -68 -3 -14 -7 -49 -11 -78 -3 -29 -7 -62 -9 -74 -8 -38 -19 -163
-20 -210 0 -27 -2 -48 -5 -48 -3 0 -6 -15 -6 -32 -1 -30 -7 -114 -18 -258 -8
-88 -17 -220 -22 -290 -5 -80 -11 -181 -19 -280 -2 -41 -7 -122 -10 -180 -4
-85 -8 -108 -23 -120 -26 -21 -77 -155 -98 -255 -25 -115 -23 -333 2 -417 3
-9 7 -26 9 -39 11 -54 39 -138 79 -232 24 -56 44 -109 44 -117 0 -8 3 -26 6
-40 2 -14 7 -43 10 -65 2 -22 7 -47 10 -55 3 -8 8 -28 10 -45 3 -16 12 -59 21
-95 22 -87 21 -83 28 -100 3 -8 15 -43 26 -78 12 -34 25 -70 30 -80 5 -9 28
-56 50 -103 46 -99 122 -217 194 -304 61 -73 206 -217 266 -265 24 -19 49 -40
55 -45 6 -6 34 -26 61 -45 28 -19 51 -37 53 -42 2 -4 8 -8 14 -8 5 0 28 -13
51 -28 86 -59 275 -156 422 -216 50 -21 98 -42 107 -47 10 -5 27 -9 37 -9 11
0 22 -4 25 -8 3 -5 40 -19 83 -32 43 -12 83 -25 88 -29 6 -3 15 -6 20 -7 6 -1
62 -16 125 -33 63 -16 126 -32 140 -35 57 -13 127 -27 155 -32 17 -2 37 -7 46
-10 10 -2 30 -6 46 -8 36 -5 177 -25 218 -32 29 -5 47 -7 200 -21 98 -9 534
-9 630 0 106 10 163 16 205 22 19 3 49 7 65 9 17 2 53 7 80 12 28 4 57 8 65 9
8 1 26 5 40 9 14 3 41 8 60 11 19 2 53 9 75 14 22 6 42 10 45 11 14 2 54 12
150 35 58 14 113 28 122 30 9 2 26 9 37 15 12 6 21 9 21 6 0 -7 283 91 355
123 146 65 404 199 430 224 7 6 36 26 64 42 28 17 51 33 51 38 0 4 7 7 15 7 8
0 15 4 15 9 0 4 17 20 38 34 50 34 157 132 248 228 52 55 174 214 174 227 0 4
13 26 29 49 38 56 113 228 150 345 38 120 70 268 87 409 3 27 23 92 44 142
113 277 132 507 63 747 -18 64 -58 158 -77 180 -7 8 -12 22 -11 30 1 8 -2 27
-6 43 -5 16 -4 27 2 27 6 0 8 4 5 9 -3 5 -8 42 -11 82 -2 41 -7 110 -10 154
-2 44 -7 116 -10 160 -4 44 -8 114 -11 155 -3 41 -7 93 -8 115 -2 22 -6 83
-10 135 -3 52 -8 113 -11 135 -3 22 -7 76 -10 120 -3 44 -7 91 -9 105 -4 22
-7 49 -22 195 -2 22 -6 49 -9 61 -2 11 -7 45 -11 75 -4 30 -10 64 -15 77 -11
28 3 29 71 2 27 -11 65 -22 83 -26 97 -17 141 -23 148 -19 4 3 10 2 13 -3 5
-8 336 -7 386 1 14 3 30 5 37 6 6 0 19 8 28 17 28 29 8 64 -93 164 -135 133
-174 220 -236 530 -3 14 -7 35 -10 48 -13 51 -17 68 -21 92 -6 36 -94 382
-101 400 -8 18 -11 28 -18 59 -7 32 -53 191 -77 264 -27 85 -82 155 -184 234
-50 38 -177 106 -230 123 -22 7 -44 15 -50 19 -5 3 -14 6 -20 7 -5 1 -30 7
-55 14 -45 12 -53 14 -145 28 -65 9 -307 9 -365 -2 -25 -4 -60 -10 -79 -12
-18 -3 -61 -14 -94 -25 -33 -10 -64 -19 -69 -19 -21 0 -207 -95 -273 -140
l-71 -48 -49 20 c-28 10 -57 21 -65 22 -8 2 -44 14 -80 25 -91 31 -269 78
-315 85 -11 2 -29 6 -40 9 -11 4 -36 9 -55 11 -19 3 -62 10 -95 16 -65 12 -87
15 -180 25 -33 3 -76 8 -95 11 -231 29 -756 17 -975 -23 -16 -3 -41 -7 -55 -9
-14 -2 -36 -5 -50 -7 -14 -3 -45 -8 -70 -11 -25 -4 -53 -9 -62 -12 -9 -3 -25
-7 -35 -9 -10 -2 -40 -9 -68 -15 -27 -6 -57 -13 -66 -15 -9 -2 -49 -13 -89
-25 -40 -12 -80 -23 -89 -25 -9 -2 -49 -15 -90 -29 l-75 -26 -60 39 c-83 54
-187 104 -271 130 -38 12 -83 26 -100 31 -16 5 -46 12 -65 14 -19 3 -46 8 -60
11 -24 6 -297 14 -303 9z"/>
</g>
</svg>
